<mxfile host="app.diagrams.net" agent="Mozilla/5.0 (Windows NT 10.0; Win64; x64) AppleWebKit/537.36 (KHTML, like Gecko) Chrome/140.0.0.0 Safari/537.36" version="28.2.3">
  <diagram name="Seite-1" id="wJk5WTvhq_zpYGnYnPie">
    <mxGraphModel dx="1426" dy="777" grid="1" gridSize="10" guides="1" tooltips="1" connect="1" arrows="1" fold="1" page="1" pageScale="1" pageWidth="827" pageHeight="1169" math="0" shadow="0">
      <root>
        <mxCell id="0" />
        <mxCell id="1" parent="0" />
        <mxCell id="Vv52ODackTqE0O9_egHr-1" value="Start" style="rounded=1;whiteSpace=wrap;html=1;" vertex="1" parent="1">
          <mxGeometry x="354" y="20" width="66" height="30" as="geometry" />
        </mxCell>
        <mxCell id="Vv52ODackTqE0O9_egHr-3" style="edgeStyle=orthogonalEdgeStyle;rounded=0;orthogonalLoop=1;jettySize=auto;html=1;exitX=0.5;exitY=1;exitDx=0;exitDy=0;entryX=0.5;entryY=0;entryDx=0;entryDy=0;" edge="1" parent="1" source="Vv52ODackTqE0O9_egHr-1" target="Vv52ODackTqE0O9_egHr-2">
          <mxGeometry relative="1" as="geometry">
            <mxPoint x="460" y="60" as="targetPoint" />
          </mxGeometry>
        </mxCell>
        <mxCell id="Vv52ODackTqE0O9_egHr-6" style="edgeStyle=orthogonalEdgeStyle;rounded=0;orthogonalLoop=1;jettySize=auto;html=1;exitX=0.5;exitY=1;exitDx=0;exitDy=0;entryX=0.5;entryY=0;entryDx=0;entryDy=0;" edge="1" parent="1" source="Vv52ODackTqE0O9_egHr-2" target="Vv52ODackTqE0O9_egHr-5">
          <mxGeometry relative="1" as="geometry" />
        </mxCell>
        <mxCell id="Vv52ODackTqE0O9_egHr-2" value="counter = 0&lt;div&gt;multiplier =0;&lt;/div&gt;&lt;div&gt;runde_Multiplier = 0;&lt;/div&gt;&lt;div&gt;treffer = 0;&lt;/div&gt;&lt;div&gt;treffer_sum = 0;&lt;/div&gt;&lt;div&gt;strike 0 false;&lt;/div&gt;" style="rounded=0;whiteSpace=wrap;html=1;" vertex="1" parent="1">
          <mxGeometry x="319.75" y="80" width="134.5" height="100" as="geometry" />
        </mxCell>
        <mxCell id="Vv52ODackTqE0O9_egHr-9" style="edgeStyle=orthogonalEdgeStyle;rounded=0;orthogonalLoop=1;jettySize=auto;html=1;exitX=0.5;exitY=1;exitDx=0;exitDy=0;entryX=0.5;entryY=0;entryDx=0;entryDy=0;" edge="1" parent="1" source="Vv52ODackTqE0O9_egHr-5" target="Vv52ODackTqE0O9_egHr-11">
          <mxGeometry relative="1" as="geometry" />
        </mxCell>
        <mxCell id="Vv52ODackTqE0O9_egHr-5" value="i&amp;lt;=10" style="rhombus;whiteSpace=wrap;html=1;" vertex="1" parent="1">
          <mxGeometry x="345.5" y="220" width="83" height="90" as="geometry" />
        </mxCell>
        <mxCell id="Vv52ODackTqE0O9_egHr-14" style="edgeStyle=orthogonalEdgeStyle;rounded=0;orthogonalLoop=1;jettySize=auto;html=1;exitX=0.5;exitY=1;exitDx=0;exitDy=0;entryX=0.5;entryY=0;entryDx=0;entryDy=0;" edge="1" parent="1" source="Vv52ODackTqE0O9_egHr-8" target="Vv52ODackTqE0O9_egHr-10">
          <mxGeometry relative="1" as="geometry" />
        </mxCell>
        <mxCell id="Vv52ODackTqE0O9_egHr-8" value="j &amp;lt;= 2" style="rhombus;whiteSpace=wrap;html=1;" vertex="1" parent="1">
          <mxGeometry x="347" y="410" width="80" height="80" as="geometry" />
        </mxCell>
        <mxCell id="Vv52ODackTqE0O9_egHr-15" style="edgeStyle=orthogonalEdgeStyle;rounded=0;orthogonalLoop=1;jettySize=auto;html=1;exitX=0.5;exitY=1;exitDx=0;exitDy=0;entryX=0.5;entryY=0;entryDx=0;entryDy=0;" edge="1" parent="1" source="Vv52ODackTqE0O9_egHr-10" target="Vv52ODackTqE0O9_egHr-12">
          <mxGeometry relative="1" as="geometry" />
        </mxCell>
        <mxCell id="Vv52ODackTqE0O9_egHr-10" value="&lt;div&gt;print(j)&lt;/div&gt;" style="whiteSpace=wrap;html=1;aspect=fixed;" vertex="1" parent="1">
          <mxGeometry x="362" y="530" width="50" height="50" as="geometry" />
        </mxCell>
        <mxCell id="Vv52ODackTqE0O9_egHr-11" value="print(i)" style="whiteSpace=wrap;html=1;aspect=fixed;" vertex="1" parent="1">
          <mxGeometry x="362" y="330" width="50" height="50" as="geometry" />
        </mxCell>
        <mxCell id="Vv52ODackTqE0O9_egHr-17" style="edgeStyle=orthogonalEdgeStyle;rounded=0;orthogonalLoop=1;jettySize=auto;html=1;exitX=0.5;exitY=1;exitDx=0;exitDy=0;entryX=0.524;entryY=1.01;entryDx=0;entryDy=0;entryPerimeter=0;" edge="1" parent="1" source="Vv52ODackTqE0O9_egHr-12" target="Vv52ODackTqE0O9_egHr-16">
          <mxGeometry relative="1" as="geometry" />
        </mxCell>
        <mxCell id="Vv52ODackTqE0O9_egHr-12" value="&lt;div style=&quot;color: rgb(188, 190, 196);&quot;&gt;&lt;pre style=&quot;font-family: &amp;quot;JetBrains Mono&amp;quot;, monospace;&quot;&gt;&lt;span&gt;((j ==&lt;span style=&quot;color: rgb(42, 172, 184);&quot;&gt;1 &lt;/span&gt;&amp;amp;&amp;amp;(treffer &amp;gt;= &lt;span style=&quot;color: rgb(42, 172, 184);&quot;&gt;11&lt;/span&gt;&lt;/span&gt;&lt;/pre&gt;&lt;pre style=&quot;font-family: &amp;quot;JetBrains Mono&amp;quot;, monospace;&quot;&gt;&lt;span&gt;|| treffer &amp;lt;= -&lt;span style=&quot;color: rgb(42, 172, 184);&quot;&gt;1&lt;/span&gt;))&lt;/span&gt;&lt;/pre&gt;&lt;pre style=&quot;font-family: &amp;quot;JetBrains Mono&amp;quot;, monospace;&quot;&gt;&lt;span&gt;|| (treffer + treffer_sum &amp;gt;= &lt;span style=&quot;color: rgb(42, 172, 184);&quot;&gt;11&lt;/span&gt;&lt;/span&gt;&lt;/pre&gt;&lt;pre style=&quot;font-family: &amp;quot;JetBrains Mono&amp;quot;, monospace;&quot;&gt;&lt;span&gt;|| treffer + treffer_sum&amp;lt;= -&lt;span style=&quot;color: rgb(42, 172, 184);&quot;&gt;1&lt;/span&gt;))&lt;/span&gt;&lt;/pre&gt;&lt;/div&gt;" style="rhombus;whiteSpace=wrap;html=1;" vertex="1" parent="1">
          <mxGeometry x="297.25" y="600" width="179.5" height="240" as="geometry" />
        </mxCell>
        <mxCell id="Vv52ODackTqE0O9_egHr-13" style="edgeStyle=orthogonalEdgeStyle;rounded=0;orthogonalLoop=1;jettySize=auto;html=1;exitX=0.5;exitY=1;exitDx=0;exitDy=0;entryX=0.5;entryY=0.032;entryDx=0;entryDy=0;entryPerimeter=0;" edge="1" parent="1" source="Vv52ODackTqE0O9_egHr-11" target="Vv52ODackTqE0O9_egHr-8">
          <mxGeometry relative="1" as="geometry" />
        </mxCell>
        <mxCell id="Vv52ODackTqE0O9_egHr-16" value="treffer" style="rounded=0;whiteSpace=wrap;html=1;" vertex="1" parent="1">
          <mxGeometry x="550" y="710" width="120" height="60" as="geometry" />
        </mxCell>
        <mxCell id="Vv52ODackTqE0O9_egHr-19" style="edgeStyle=orthogonalEdgeStyle;rounded=0;orthogonalLoop=1;jettySize=auto;html=1;exitX=0.5;exitY=0;exitDx=0;exitDy=0;entryX=0.579;entryY=0.075;entryDx=0;entryDy=0;entryPerimeter=0;" edge="1" parent="1" source="Vv52ODackTqE0O9_egHr-16" target="Vv52ODackTqE0O9_egHr-12">
          <mxGeometry relative="1" as="geometry" />
        </mxCell>
        <mxCell id="Vv52ODackTqE0O9_egHr-20" value="False" style="text;html=1;align=center;verticalAlign=middle;resizable=0;points=[];autosize=1;strokeColor=none;fillColor=none;" vertex="1" parent="1">
          <mxGeometry x="435" y="838" width="50" height="30" as="geometry" />
        </mxCell>
      </root>
    </mxGraphModel>
  </diagram>
</mxfile>
